<mxfile host="app.diagrams.net" modified="2022-07-04T02:55:42.764Z" agent="5.0 (Windows NT 10.0; Win64; x64) AppleWebKit/537.36 (KHTML, like Gecko) Chrome/103.0.5060.66 Safari/537.36" etag="G1MZz9dOxEsxWmHPmc8U" version="20.0.1" type="github">
  <diagram id="XA61wwXE8HyT7bfH3xi0" name="Page-1">
    <mxGraphModel dx="569" dy="318" grid="1" gridSize="10" guides="1" tooltips="1" connect="1" arrows="1" fold="1" page="1" pageScale="1" pageWidth="827" pageHeight="1169" math="0" shadow="0">
      <root>
        <mxCell id="0" />
        <mxCell id="1" parent="0" />
        <mxCell id="IPqUH8_Ofk3vhc3KA9Ja-3" value="Pool" style="swimlane;childLayout=stackLayout;resizeParent=1;resizeParentMax=0;startSize=20;" vertex="1" parent="1">
          <mxGeometry x="90" y="150" width="360" height="480" as="geometry" />
        </mxCell>
        <mxCell id="IPqUH8_Ofk3vhc3KA9Ja-4" value="用户（小程序）" style="swimlane;startSize=20;" vertex="1" parent="IPqUH8_Ofk3vhc3KA9Ja-3">
          <mxGeometry y="20" width="120" height="460" as="geometry" />
        </mxCell>
        <mxCell id="IPqUH8_Ofk3vhc3KA9Ja-9" style="edgeStyle=orthogonalEdgeStyle;rounded=0;orthogonalLoop=1;jettySize=auto;html=1;exitX=0.5;exitY=1;exitDx=0;exitDy=0;entryX=0.5;entryY=0;entryDx=0;entryDy=0;" edge="1" parent="IPqUH8_Ofk3vhc3KA9Ja-4" source="IPqUH8_Ofk3vhc3KA9Ja-7" target="IPqUH8_Ofk3vhc3KA9Ja-8">
          <mxGeometry relative="1" as="geometry" />
        </mxCell>
        <mxCell id="IPqUH8_Ofk3vhc3KA9Ja-7" value="开始" style="ellipse;whiteSpace=wrap;html=1;aspect=fixed;" vertex="1" parent="IPqUH8_Ofk3vhc3KA9Ja-4">
          <mxGeometry x="35" y="40" width="50" height="50" as="geometry" />
        </mxCell>
        <mxCell id="IPqUH8_Ofk3vhc3KA9Ja-8" value="发起反馈" style="rounded=1;whiteSpace=wrap;html=1;" vertex="1" parent="IPqUH8_Ofk3vhc3KA9Ja-4">
          <mxGeometry x="10" y="120" width="100" height="50" as="geometry" />
        </mxCell>
        <mxCell id="IPqUH8_Ofk3vhc3KA9Ja-18" style="edgeStyle=orthogonalEdgeStyle;rounded=0;orthogonalLoop=1;jettySize=auto;html=1;exitX=0.5;exitY=1;exitDx=0;exitDy=0;entryX=0.5;entryY=0;entryDx=0;entryDy=0;" edge="1" parent="IPqUH8_Ofk3vhc3KA9Ja-4" source="IPqUH8_Ofk3vhc3KA9Ja-15" target="IPqUH8_Ofk3vhc3KA9Ja-17">
          <mxGeometry relative="1" as="geometry" />
        </mxCell>
        <mxCell id="IPqUH8_Ofk3vhc3KA9Ja-19" value="是" style="edgeLabel;html=1;align=center;verticalAlign=middle;resizable=0;points=[];" vertex="1" connectable="0" parent="IPqUH8_Ofk3vhc3KA9Ja-18">
          <mxGeometry x="-0.5423" relative="1" as="geometry">
            <mxPoint as="offset" />
          </mxGeometry>
        </mxCell>
        <mxCell id="IPqUH8_Ofk3vhc3KA9Ja-15" value="处理完毕？" style="rhombus;whiteSpace=wrap;html=1;" vertex="1" parent="IPqUH8_Ofk3vhc3KA9Ja-4">
          <mxGeometry x="20" y="240" width="80" height="80" as="geometry" />
        </mxCell>
        <mxCell id="IPqUH8_Ofk3vhc3KA9Ja-17" value="处理反馈" style="rounded=1;whiteSpace=wrap;html=1;" vertex="1" parent="IPqUH8_Ofk3vhc3KA9Ja-4">
          <mxGeometry x="10" y="370" width="100" height="50" as="geometry" />
        </mxCell>
        <mxCell id="IPqUH8_Ofk3vhc3KA9Ja-5" value="服务团队" style="swimlane;startSize=20;" vertex="1" parent="IPqUH8_Ofk3vhc3KA9Ja-3">
          <mxGeometry x="120" y="20" width="120" height="460" as="geometry" />
        </mxCell>
        <mxCell id="IPqUH8_Ofk3vhc3KA9Ja-20" value="" style="rhombus;whiteSpace=wrap;html=1;" vertex="1" parent="IPqUH8_Ofk3vhc3KA9Ja-5">
          <mxGeometry x="20" y="180" width="80" height="80" as="geometry" />
        </mxCell>
        <mxCell id="IPqUH8_Ofk3vhc3KA9Ja-6" value="Lane 3" style="swimlane;startSize=20;" vertex="1" parent="IPqUH8_Ofk3vhc3KA9Ja-3">
          <mxGeometry x="240" y="20" width="120" height="460" as="geometry" />
        </mxCell>
        <mxCell id="IPqUH8_Ofk3vhc3KA9Ja-13" style="edgeStyle=orthogonalEdgeStyle;rounded=0;orthogonalLoop=1;jettySize=auto;html=1;exitX=1;exitY=0.5;exitDx=0;exitDy=0;entryX=0.5;entryY=0;entryDx=0;entryDy=0;" edge="1" parent="IPqUH8_Ofk3vhc3KA9Ja-3" source="IPqUH8_Ofk3vhc3KA9Ja-8" target="IPqUH8_Ofk3vhc3KA9Ja-20">
          <mxGeometry relative="1" as="geometry">
            <mxPoint x="180" y="200" as="targetPoint" />
          </mxGeometry>
        </mxCell>
        <mxCell id="IPqUH8_Ofk3vhc3KA9Ja-16" style="edgeStyle=orthogonalEdgeStyle;rounded=0;orthogonalLoop=1;jettySize=auto;html=1;exitX=0.5;exitY=1;exitDx=0;exitDy=0;entryX=1;entryY=0.5;entryDx=0;entryDy=0;" edge="1" parent="IPqUH8_Ofk3vhc3KA9Ja-3" source="IPqUH8_Ofk3vhc3KA9Ja-20" target="IPqUH8_Ofk3vhc3KA9Ja-15">
          <mxGeometry relative="1" as="geometry">
            <mxPoint x="180" y="250" as="sourcePoint" />
          </mxGeometry>
        </mxCell>
      </root>
    </mxGraphModel>
  </diagram>
</mxfile>
